<?xml version="1.0" standalone="no"?><!DOCTYPE svg PUBLIC "-//W3C//DTD SVG 1.1//EN" "http://www.w3.org/Graphics/SVG/1.1/DTD/svg11.dtd"><svg t="1641760430933" class="icon" viewBox="0 0 1024 1024" version="1.1" xmlns="http://www.w3.org/2000/svg" p-id="22176" xmlns:xlink="http://www.w3.org/1999/xlink" width="200" height="200"><defs><style type="text/css"></style></defs><path d="M839.7 769.4c9.3-20 13.6-48 13.6-86.8 0-138.5-63.8-218.4-115.1-282.7-31-38.9-55.6-69.6-55.6-101.3v-10c0.3-58.9 1-181.5-64-246.9C591.1 14 555.2 0 512 0c-89.6 0-149.3 43.5-149.3 256 0 58.5-24.6 106.4-50.7 157.1-11.4 22.2-23.2 45.2-33.1 69.5-19.7 48.5-65.6 167.1-65.6 221.4 0 3.5 0.8 6.9 2.4 10l151 288c3.3 6.2 9.4 10.3 16.4 11.1 7 0.9 14-1.8 18.6-7.1 9.5-10.6 72.3-24.6 110.2-24.6h144.7c5.6 0 10.9-2.1 14.9-6l175.3-170.7c8.4-8.2 8.6-21.7 0.4-30.2-2.1-2.2-4.7-3.9-7.6-5v-0.1z" fill="#1A1A1A" p-id="22177"></path><path d="M688.2 717.3c-0.5-103.9-14.6-220.7-96.7-388.5-40.6 27.5-115.2 49.2-124.2 49.2-16.2 0-51.4-11.5-77.3-34.4-10.6 31.4-25.4 60.5-40 89-11 21.4-22.4 43.5-31.5 66.1-25.8 63.3-55.3 146.7-61.1 191.1 18 12 30.6 38 44.5 67.1 14.4 30.1 30.7 64.3 51.7 78.9 38.5 26.8 58.4 65 63.6 99.7 14.6 1.5 33.1 2.7 54 2.7 52 0 122.6-10.6 174.8-42.2 3-56.4 12.9-147 42.2-178.7z" fill="#FFFFFF" p-id="22178"></path><path d="M892.9 813.8c-8.8-5.8-18-11.8-24.4-18.3-3.8-3.8-2-21.2-1.1-30.6 1.8-18 3.6-36.6-8.5-50-4.6-5-12.9-11.1-26.8-11.1-11.4 0-19.7 9-20.2 20.4 0 0.3 0.1 0.6 0.1 0.9h-86.5c0-11.8-9.6-21.3-21.3-21.3-63.3 0-64 232.3-64.2 237.4-1.2 12.7-4 42.6 15.1 63.5 11.5 12.6 28 19.1 49.1 19.1 55.4 0 82.2-28.5 108.2-56.1 4.4-4.7 8.8-9.4 13.6-14.1 10.8-10.8 32-18.5 50.6-25.3 30.6-11.2 62.3-22.8 62.3-53.8s-25.6-47.3-46-60.7z m-539.4 22c-21-14.7-37.3-48.8-51.7-78.9-19-39.8-35.5-74.3-67.1-74.3-40 0-48.7 35.9-53.3 55.2-1.3 5.3-3.2 13.3-3.4 14.2-3.2 2-15.1 4.3-23 5.9-26 5.2-69.6 13.8-69.6 52.7 0.2 10.4 1.4 20.8 3.5 31 3.3 17.8 6.5 34.5-2.9 70.4-0.5 1.7-0.7 3.5-0.7 5.3 0 51.3 79.7 58 127.3 61.9 8 0.7 14.5 1.2 18.7 1.8 6.6 1 20.3 7.4 33.6 13.5 28.4 13.1 63.8 29.4 97.7 29.4 24.4 0 43.9-15.8 52.2-42.1 12.9-41-4.1-106.2-61.3-146z" fill="#FDB515" p-id="22179"></path><path d="M832 661.3c-3.9 0.1-7.7 1.3-10.9 3.4l-142.5-233c-17.5-49-38.3-96.7-62.3-142.8-5.4-10.5-18.3-14.6-28.8-9.2s-14.6 18.3-9.2 28.8c96.3 187.2 104.3 304 104.3 415.7-0.3 4.5-1.8 44.4 21.2 68.8 11.1 11.7 26.6 18.1 42.8 17.8h14.8c21.7 0 45.2-1.7 63.5-19.9 19.7-19.4 28.5-52.8 28.5-108.1-0.1-11.9-9.6-21.5-21.4-21.5z" fill="#1A1A1A" p-id="22180"></path><path d="M554.7 129.8c-24.7 0-42.7 26.5-42.7 63.1s18 63.1 42.7 63.1 42.7-26.5 42.7-63.1-18.1-63.1-42.7-63.1z" fill="#FFFFFF" p-id="22181"></path><path d="M535.3 208.6c0 20.9 8.6 37.9 19.3 37.9 10.7 0 19.4-16.9 19.4-37.9v-0.1c0-20.9-8.6-37.9-19.3-37.9-10.7 0-19.4 16.9-19.4 38 0-0.1 0-0.1 0 0z" p-id="22182"></path><path d="M426.7 129.8c-24.7 0-42.7 26.5-42.7 63.1s18 63.1 42.7 63.1 42.7-26.5 42.7-63.1-18.1-63.1-42.7-63.1z" fill="#FFFFFF" p-id="22183"></path><path d="M407.7 207.8c0 20.5 8.5 37.1 19 37.1s19-16.6 19-37.1-8.5-37.2-18.9-37.2c-10.6 0-19.1 16.6-19.1 37.2z" p-id="22184"></path><path d="M494.9 213.8c-1.4-0.3-2.8-0.4-4.2-0.4-45.9 0-128 43-128 85.3 0 40 80.7 85.3 106.7 85.3 12.6 0 149.3-47.5 149.3-85.3 0-55.8-94.8-79.1-123.8-84.9z" fill="#FDB515" p-id="22185"></path></svg>