<?xml version="1.0" standalone="no"?><!DOCTYPE svg PUBLIC "-//W3C//DTD SVG 1.1//EN" "http://www.w3.org/Graphics/SVG/1.1/DTD/svg11.dtd"><svg t="1642367014007" class="icon" viewBox="0 0 1024 1024" version="1.1" xmlns="http://www.w3.org/2000/svg" p-id="19573" xmlns:xlink="http://www.w3.org/1999/xlink" width="200" height="200"><defs><style type="text/css"></style></defs><path d="M512 42.666667C252.842667 42.666667 42.666667 252.842667 42.666667 512s210.176 469.333333 469.333333 469.333333 469.333333-210.176 469.333333-469.333333S771.157333 42.666667 512 42.666667zM368 320c129.152 0 134.656 130.517333 134.656 164.010667v61.312c0 26.197333-3.328 158.677333-134.656 158.677333-131.157333 0-134.656-128.341333-134.656-158.677333v-61.312C233.344 422.485333 256 320 368 320z m305.322667 0c108.672 0 117.333333 93.866667 117.333333 116.010667h-74.666667c0-7.850667-1.322667-54.656-43.989333-54.656-40.021333 0-41.344 37.973333-41.344 43.946666 0 67.712 160 43.690667 160 174.72 0 99.626667-98.133333 103.978667-115.968 103.978667-100.693333 0-129.365333-73.813333-129.365333-122.666667h75.989333c0 11.349333-3.328 61.354667 53.333333 61.354667 39.850667 0 40.021333-35.370667 40.021334-41.386667 0-80.810667-160-49.152-160-177.28 0-97.706667 101.162667-104.021333 118.656-104.021333zM368 382.677333c-9.813333 0-59.989333-5.546667-59.989333 100.010667v62.634667c0 17.024-3.157333 96 59.989333 96 61.354667 0 58.666667-78.976 58.666667-96v-62.677334c0-21.632 4.010667-99.968-58.666667-99.968z" fill="#1296db" p-id="19574"></path></svg>